<?xml version="1.0" encoding="UTF-8" standalone="no"?>
<!DOCTYPE svg PUBLIC "-//W3C//DTD SVG 1.1//EN"
 "http://www.w3.org/Graphics/SVG/1.1/DTD/svg11.dtd">
<!-- Generated by graphviz version 12.2.1 (0)
 -->
<!-- Pages: 1 -->
<svg width="303pt" height="344pt"
 viewBox="0.00 0.00 303.21 343.98" xmlns="http://www.w3.org/2000/svg" xmlns:xlink="http://www.w3.org/1999/xlink">
<g id="graph0" class="graph" transform="scale(1 1) rotate(0) translate(4 339.98)">
<polygon fill="white" stroke="none" points="-4,4 -4,-339.98 299.21,-339.98 299.21,4 -4,4"/>
<text text-anchor="middle" x="147.6" y="-21.2" font-family="Times,serif" font-size="14.00">ABACCDCDD</text>
<text text-anchor="middle" x="147.6" y="-3.95" font-family="Times,serif" font-size="14.00">200122010</text>
<!-- 1 -->
<g id="node1" class="node">
<title>1</title>
<ellipse fill="none" stroke="black" cx="197" cy="-84.14" rx="27" ry="18"/>
<text text-anchor="middle" x="197" y="-79.46" font-family="Times,serif" font-size="14.00">1</text>
</g>
<!-- 3 -->
<g id="node2" class="node">
<title>3</title>
<ellipse fill="none" stroke="black" cx="268.21" cy="-73.5" rx="27" ry="18"/>
<text text-anchor="middle" x="268.21" y="-68.83" font-family="Times,serif" font-size="14.00">3</text>
</g>
<!-- 1&#45;&#45;3 -->
<g id="edge1" class="edge">
<title>1&#45;&#45;3</title>
<path fill="none" stroke="black" d="M223.52,-80.18C229.37,-79.3 235.57,-78.38 241.43,-77.5"/>
</g>
<!-- 4 -->
<g id="node3" class="node">
<title>4</title>
<ellipse fill="lightgrey" stroke="black" cx="49.73" cy="-187.71" rx="27" ry="18"/>
<text text-anchor="middle" x="49.73" y="-183.04" font-family="Times,serif" font-size="14.00">4</text>
</g>
<!-- 5 -->
<g id="node4" class="node">
<title>5</title>
<ellipse fill="none" stroke="black" cx="87.67" cy="-126.11" rx="27" ry="18"/>
<text text-anchor="middle" x="87.67" y="-121.44" font-family="Times,serif" font-size="14.00">5</text>
</g>
<!-- 4&#45;&#45;5 -->
<g id="edge2" class="edge">
<title>4&#45;&#45;5</title>
<path fill="none" stroke="black" d="M60.09,-170.88C65.45,-162.19 71.96,-151.61 77.31,-142.93"/>
</g>
<!-- 7 -->
<g id="node5" class="node">
<title>7</title>
<ellipse fill="none" stroke="black" cx="107.11" cy="-56.5" rx="27" ry="18"/>
<text text-anchor="middle" x="107.11" y="-51.83" font-family="Times,serif" font-size="14.00">7</text>
</g>
<!-- 5&#45;&#45;7 -->
<g id="edge3" class="edge">
<title>5&#45;&#45;7</title>
<path fill="none" stroke="black" d="M92.67,-108.19C95.55,-97.87 99.16,-84.95 102.05,-74.61"/>
</g>
<!-- 6 -->
<g id="node6" class="node">
<title>6</title>
<ellipse fill="none" stroke="black" cx="112" cy="-317.98" rx="27" ry="18"/>
<text text-anchor="middle" x="112" y="-313.31" font-family="Times,serif" font-size="14.00">6</text>
</g>
<!-- 8 -->
<g id="node7" class="node">
<title>8</title>
<ellipse fill="none" stroke="black" cx="156.02" cy="-260.65" rx="27" ry="18"/>
<text text-anchor="middle" x="156.02" y="-255.97" font-family="Times,serif" font-size="14.00">8</text>
</g>
<!-- 6&#45;&#45;8 -->
<g id="edge4" class="edge">
<title>6&#45;&#45;8</title>
<path fill="none" stroke="black" d="M124.5,-301.7C130.5,-293.89 137.66,-284.56 143.64,-276.77"/>
</g>
<!-- 9 -->
<g id="node8" class="node">
<title>9</title>
<ellipse fill="none" stroke="black" cx="180.13" cy="-192.5" rx="27" ry="18"/>
<text text-anchor="middle" x="180.13" y="-187.82" font-family="Times,serif" font-size="14.00">9</text>
</g>
<!-- 8&#45;&#45;9 -->
<g id="edge5" class="edge">
<title>8&#45;&#45;9</title>
<path fill="none" stroke="black" d="M162.35,-242.75C165.92,-232.65 170.37,-220.09 173.92,-210.05"/>
</g>
<!-- 2 -->
<g id="node9" class="node">
<title>2</title>
<ellipse fill="lightgrey" stroke="black" cx="27" cy="-256.23" rx="27" ry="18"/>
<text text-anchor="middle" x="27" y="-251.56" font-family="Times,serif" font-size="14.00">2</text>
</g>
<!-- 2&#45;&#45;4 -->
</g>
</svg>
