<?xml version="1.0" encoding="UTF-8" standalone="no"?>
<!DOCTYPE svg PUBLIC "-//W3C//DTD SVG 1.1//EN"
 "http://www.w3.org/Graphics/SVG/1.1/DTD/svg11.dtd">
<!-- Generated by graphviz version 12.2.1 (0)
 -->
<!-- Pages: 1 -->
<svg width="313pt" height="363pt"
 viewBox="0.00 0.00 313.21 363.14" xmlns="http://www.w3.org/2000/svg" xmlns:xlink="http://www.w3.org/1999/xlink">
<g id="graph0" class="graph" transform="scale(1 1) rotate(0) translate(4 359.14)">
<polygon fill="white" stroke="none" points="-4,4 -4,-359.14 309.21,-359.14 309.21,4 -4,4"/>
<text text-anchor="middle" x="152.6" y="-21.2" font-family="Times,serif" font-size="14.00">ABABBCBCD</text>
<text text-anchor="middle" x="152.6" y="-3.95" font-family="Times,serif" font-size="14.00">220122000</text>
<!-- 1 -->
<g id="node1" class="node">
<title>1</title>
<ellipse fill="none" stroke="black" cx="207" cy="-337.14" rx="27" ry="18"/>
<text text-anchor="middle" x="207" y="-332.46" font-family="Times,serif" font-size="14.00">1</text>
</g>
<!-- 3 -->
<g id="node2" class="node">
<title>3</title>
<ellipse fill="none" stroke="black" cx="278.21" cy="-326.5" rx="27" ry="18"/>
<text text-anchor="middle" x="278.21" y="-321.82" font-family="Times,serif" font-size="14.00">3</text>
</g>
<!-- 1&#45;&#45;3 -->
<g id="edge1" class="edge">
<title>1&#45;&#45;3</title>
<path fill="none" stroke="black" d="M233.52,-333.18C239.37,-332.3 245.57,-331.38 251.43,-330.5"/>
</g>
<!-- 2 -->
<g id="node3" class="node">
<title>2</title>
<ellipse fill="none" stroke="black" cx="27" cy="-56.5" rx="27" ry="18"/>
<text text-anchor="middle" x="27" y="-51.83" font-family="Times,serif" font-size="14.00">2</text>
</g>
<!-- 4 -->
<g id="node4" class="node">
<title>4</title>
<ellipse fill="none" stroke="black" cx="43.07" cy="-126.97" rx="27" ry="18"/>
<text text-anchor="middle" x="43.07" y="-122.3" font-family="Times,serif" font-size="14.00">4</text>
</g>
<!-- 2&#45;&#45;4 -->
<g id="edge2" class="edge">
<title>2&#45;&#45;4</title>
<path fill="none" stroke="black" d="M31.14,-74.65C33.56,-85.25 36.6,-98.58 39,-109.13"/>
</g>
<!-- 5 -->
<g id="node5" class="node">
<title>5</title>
<ellipse fill="none" stroke="black" cx="41.47" cy="-199.19" rx="27" ry="18"/>
<text text-anchor="middle" x="41.47" y="-194.52" font-family="Times,serif" font-size="14.00">5</text>
</g>
<!-- 4&#45;&#45;5 -->
<g id="edge3" class="edge">
<title>4&#45;&#45;5</title>
<path fill="none" stroke="black" d="M42.67,-145.19C42.42,-156.06 42.12,-169.81 41.88,-180.72"/>
</g>
<!-- 7 -->
<g id="node6" class="node">
<title>7</title>
<ellipse fill="none" stroke="black" cx="32.97" cy="-270.8" rx="27" ry="18"/>
<text text-anchor="middle" x="32.97" y="-266.12" font-family="Times,serif" font-size="14.00">7</text>
</g>
<!-- 5&#45;&#45;7 -->
<g id="edge4" class="edge">
<title>5&#45;&#45;7</title>
<path fill="none" stroke="black" d="M39.28,-217.63C38,-228.4 36.39,-241.95 35.12,-252.67"/>
</g>
<!-- 8 -->
<g id="node7" class="node">
<title>8</title>
<ellipse fill="lightgrey" stroke="black" cx="155.96" cy="-199.71" rx="27" ry="18"/>
<text text-anchor="middle" x="155.96" y="-195.03" font-family="Times,serif" font-size="14.00">8</text>
</g>
<!-- 9 -->
<g id="node8" class="node">
<title>9</title>
<ellipse fill="lightgrey" stroke="black" cx="132" cy="-131.5" rx="27" ry="18"/>
<text text-anchor="middle" x="132" y="-126.83" font-family="Times,serif" font-size="14.00">9</text>
</g>
<!-- 8&#45;&#45;9 -->
<!-- 6 -->
<g id="node9" class="node">
<title>6</title>
<ellipse fill="none" stroke="black" cx="199.85" cy="-257.13" rx="27" ry="18"/>
<text text-anchor="middle" x="199.85" y="-252.45" font-family="Times,serif" font-size="14.00">6</text>
</g>
<!-- 6&#45;&#45;8 -->
<g id="edge6" class="edge">
<title>6&#45;&#45;8</title>
<path fill="none" stroke="black" d="M187.39,-240.83C181.41,-233 174.26,-223.65 168.3,-215.85"/>
</g>
</g>
</svg>
