<?xml version="1.0" encoding="UTF-8" standalone="no"?>
<!DOCTYPE svg PUBLIC "-//W3C//DTD SVG 1.1//EN"
 "http://www.w3.org/Graphics/SVG/1.1/DTD/svg11.dtd">
<!-- Generated by graphviz version 12.2.1 (0)
 -->
<!-- Pages: 1 -->
<svg width="340pt" height="306pt"
 viewBox="0.00 0.00 340.13 305.98" xmlns="http://www.w3.org/2000/svg" xmlns:xlink="http://www.w3.org/1999/xlink">
<g id="graph0" class="graph" transform="scale(1 1) rotate(0) translate(4 301.98)">
<polygon fill="white" stroke="none" points="-4,4 -4,-301.98 336.13,-301.98 336.13,4 -4,4"/>
<text text-anchor="middle" x="166.06" y="-21.2" font-family="Times,serif" font-size="14.00">ABABCDCDD</text>
<text text-anchor="middle" x="166.06" y="-3.95" font-family="Times,serif" font-size="14.00">220022010</text>
<!-- 1 -->
<g id="node1" class="node">
<title>1</title>
<ellipse fill="none" stroke="black" cx="139" cy="-165.14" rx="27" ry="18"/>
<text text-anchor="middle" x="139" y="-160.47" font-family="Times,serif" font-size="14.00">1</text>
</g>
<!-- 3 -->
<g id="node2" class="node">
<title>3</title>
<ellipse fill="none" stroke="black" cx="210.21" cy="-154.5" rx="27" ry="18"/>
<text text-anchor="middle" x="210.21" y="-149.82" font-family="Times,serif" font-size="14.00">3</text>
</g>
<!-- 1&#45;&#45;3 -->
<g id="edge1" class="edge">
<title>1&#45;&#45;3</title>
<path fill="none" stroke="black" d="M165.52,-161.18C171.37,-160.3 177.57,-159.38 183.43,-158.5"/>
</g>
<!-- 4 -->
<g id="node3" class="node">
<title>4</title>
<ellipse fill="lightgrey" stroke="black" cx="169.47" cy="-58.29" rx="27" ry="18"/>
<text text-anchor="middle" x="169.47" y="-53.62" font-family="Times,serif" font-size="14.00">4</text>
</g>
<!-- 5 -->
<g id="node4" class="node">
<title>5</title>
<ellipse fill="lightgrey" stroke="black" cx="97.26" cy="-56.5" rx="27" ry="18"/>
<text text-anchor="middle" x="97.26" y="-51.83" font-family="Times,serif" font-size="14.00">5</text>
</g>
<!-- 4&#45;&#45;5 -->
<!-- 7 -->
<g id="node5" class="node">
<title>7</title>
<ellipse fill="none" stroke="black" cx="27" cy="-73.43" rx="27" ry="18"/>
<text text-anchor="middle" x="27" y="-68.76" font-family="Times,serif" font-size="14.00">7</text>
</g>
<!-- 5&#45;&#45;7 -->
<g id="edge3" class="edge">
<title>5&#45;&#45;7</title>
<path fill="none" stroke="black" d="M71.5,-62.71C65.39,-64.18 58.87,-65.75 52.76,-67.22"/>
</g>
<!-- 2 -->
<g id="node6" class="node">
<title>2</title>
<ellipse fill="none" stroke="black" cx="241.35" cy="-63.61" rx="27" ry="18"/>
<text text-anchor="middle" x="241.35" y="-58.94" font-family="Times,serif" font-size="14.00">2</text>
</g>
<!-- 2&#45;&#45;4 -->
<g id="edge4" class="edge">
<title>2&#45;&#45;4</title>
<path fill="none" stroke="black" d="M214.17,-61.6C208.45,-61.18 202.41,-60.73 196.68,-60.31"/>
</g>
<!-- 6 -->
<g id="node7" class="node">
<title>6</title>
<ellipse fill="none" stroke="black" cx="237" cy="-279.98" rx="27" ry="18"/>
<text text-anchor="middle" x="237" y="-275.31" font-family="Times,serif" font-size="14.00">6</text>
</g>
<!-- 8 -->
<g id="node8" class="node">
<title>8</title>
<ellipse fill="none" stroke="black" cx="281.02" cy="-222.65" rx="27" ry="18"/>
<text text-anchor="middle" x="281.02" y="-217.97" font-family="Times,serif" font-size="14.00">8</text>
</g>
<!-- 6&#45;&#45;8 -->
<g id="edge5" class="edge">
<title>6&#45;&#45;8</title>
<path fill="none" stroke="black" d="M249.5,-263.7C255.5,-255.89 262.66,-246.56 268.64,-238.77"/>
</g>
<!-- 9 -->
<g id="node9" class="node">
<title>9</title>
<ellipse fill="none" stroke="black" cx="305.13" cy="-154.5" rx="27" ry="18"/>
<text text-anchor="middle" x="305.13" y="-149.82" font-family="Times,serif" font-size="14.00">9</text>
</g>
<!-- 8&#45;&#45;9 -->
<g id="edge6" class="edge">
<title>8&#45;&#45;9</title>
<path fill="none" stroke="black" d="M287.35,-204.75C290.92,-194.65 295.37,-182.09 298.92,-172.05"/>
</g>
</g>
</svg>
